<?xml version="1.0" encoding="UTF-8" standalone="no"?>
<!-- Created with Inkscape (http://www.inkscape.org/) -->

<svg
   width="64"
   height="64"
   viewBox="0 0 16.933333 16.933333"
   version="1.1"
   id="svg1"
   inkscape:export-filename="flower.png"
   inkscape:export-xdpi="96"
   inkscape:export-ydpi="96"
   inkscape:version="1.3.2 (091e20e, 2023-11-25, custom)"
   sodipodi:docname="flower.svg"
   xmlns:inkscape="http://www.inkscape.org/namespaces/inkscape"
   xmlns:sodipodi="http://sodipodi.sourceforge.net/DTD/sodipodi-0.dtd"
   xmlns="http://www.w3.org/2000/svg"
   xmlns:svg="http://www.w3.org/2000/svg">
  <sodipodi:namedview
     id="namedview1"
     pagecolor="#ffffff"
     bordercolor="#666666"
     borderopacity="1.0"
     inkscape:showpageshadow="2"
     inkscape:pageopacity="0.0"
     inkscape:pagecheckerboard="0"
     inkscape:deskcolor="#d1d1d1"
     inkscape:document-units="px"
     showgrid="false"
     inkscape:zoom="3.096605"
     inkscape:cx="-38.106249"
     inkscape:cy="2.7449416"
     inkscape:window-width="1920"
     inkscape:window-height="1027"
     inkscape:window-x="1912"
     inkscape:window-y="-8"
     inkscape:window-maximized="1"
     inkscape:current-layer="layer1">
    <inkscape:grid
       id="grid1"
       units="px"
       originx="0"
       originy="0"
       spacingx="33.866666"
       spacingy="33.866666"
       empcolor="#0099e5"
       empopacity="0.30196078"
       color="#0099e5"
       opacity="0.14901961"
       empspacing="5"
       dotted="false"
       gridanglex="30"
       gridanglez="30"
       visible="false" />
  </sodipodi:namedview>
  <defs
     id="defs1" />
  <g
     inkscape:label="Layer 1"
     inkscape:groupmode="layer"
     id="layer1">
    <path
       id="path6"
       style="font-variation-settings:normal;opacity:1;vector-effect:none;fill:#c080e0;fill-opacity:1;stroke:none;stroke-width:5.29201;stroke-linecap:round;stroke-linejoin:round;stroke-miterlimit:4;stroke-dasharray:none;stroke-dashoffset:0;stroke-opacity:1;-inkscape-stroke:none;stop-color:#000000;stop-opacity:1"
       d="M 2.6507158,2.6507152 C 3.1048325,2.1965985 4.4350553,2.1337359 5.9336776,3.5804524 7.4592088,5.0531458 8.3268399,6.96982 9.5541788,9.5541783 6.9698206,8.3268394 5.0531457,7.4592089 3.5804523,5.9336777 2.1337337,4.4350575 2.196599,3.104832 2.6507158,2.6507152 Z" />
    <path
       id="path7"
       style="font-variation-settings:normal;opacity:1;vector-effect:none;fill:#c080e0;fill-opacity:1;stroke:none;stroke-width:5.29201;stroke-linecap:round;stroke-linejoin:round;stroke-miterlimit:4;stroke-dasharray:none;stroke-dashoffset:0;stroke-opacity:1;-inkscape-stroke:none;stop-color:#000000;stop-opacity:1"
       d="M 14.282617,14.282617 C 14.736734,13.8285 14.799597,12.498277 13.35288,10.999655 11.880188,9.4741245 9.9635125,8.6064926 7.3791544,7.3791538 c 1.2273388,2.5843582 2.09497,4.5010342 3.6205006,5.9737262 1.49862,1.446719 2.828846,1.383854 3.282962,0.929737 z" />
    <path
       id="path8"
       style="font-variation-settings:normal;opacity:1;vector-effect:none;fill:#c080e0;fill-opacity:1;stroke:none;stroke-width:5.29201;stroke-linecap:round;stroke-linejoin:round;stroke-miterlimit:4;stroke-dasharray:none;stroke-dashoffset:0;stroke-opacity:1;-inkscape-stroke:none;stop-color:#000000;stop-opacity:1"
       d="M 2.6507155,14.282617 C 2.1965987,13.8285 2.1337361,12.498278 3.5804526,10.999655 5.0531461,9.4741242 6.9698203,8.6064931 9.5541787,7.379154 8.3268397,9.9635124 7.4592088,11.880187 5.9336776,13.35288 4.4350574,14.799599 3.1048322,14.736734 2.6507155,14.282617 Z" />
    <path
       id="path9"
       style="font-variation-settings:normal;opacity:1;vector-effect:none;fill:#c080e0;fill-opacity:1;stroke:none;stroke-width:5.29201;stroke-linecap:round;stroke-linejoin:round;stroke-miterlimit:4;stroke-dasharray:none;stroke-dashoffset:0;stroke-opacity:1;-inkscape-stroke:none;stop-color:#000000;stop-opacity:1"
       d="M 14.282617,2.6507152 C 13.828501,2.1965985 12.498278,2.1337362 10.999655,3.5804526 9.4741246,5.0531459 8.6064929,6.9698205 7.3791541,9.5541786 9.9635123,8.3268398 11.880187,7.4592086 13.35288,5.9336775 14.799597,4.4350553 14.736734,3.104832 14.282617,2.6507152 Z" />
    <path
       id="path4"
       style="font-variation-settings:normal;opacity:1;vector-effect:none;fill:#c080e0;fill-opacity:1;stroke:none;stroke-width:5.29201;stroke-linecap:round;stroke-linejoin:round;stroke-miterlimit:4;stroke-dasharray:none;stroke-dashoffset:0;stroke-opacity:1;-inkscape-stroke:none;stop-color:#000000;stop-opacity:1"
       d="m 0.2416699,8.466666 c 0,-0.6422181 0.896159,-1.6272782 2.978828,-1.6639811 2.120065,-0.037362 4.0888662,0.7044235 6.7841431,1.6639811 -2.6952769,0.9595576 -4.6640781,1.701344 -6.7841431,1.663982 -2.082669,-0.0367 -2.978828,-1.0217639 -2.978828,-1.663982 z" />
    <path
       id="path5"
       style="font-variation-settings:normal;opacity:1;vector-effect:none;fill:#c080e0;fill-opacity:1;stroke:none;stroke-width:5.29201;stroke-linecap:round;stroke-linejoin:round;stroke-miterlimit:4;stroke-dasharray:none;stroke-dashoffset:0;stroke-opacity:1;-inkscape-stroke:none;stop-color:#000000;stop-opacity:1"
       d="m 16.691663,8.466666 c 0,-0.6422181 -0.896159,-1.6272782 -2.978828,-1.6639811 -2.120064,-0.037362 -4.0888663,0.7044235 -6.7841431,1.6639811 2.6952768,0.9595576 4.6640791,1.701344 6.7841431,1.663982 2.082669,-0.0367 2.978828,-1.0217639 2.978828,-1.663982 z" />
    <path
       id="path3"
       style="font-variation-settings:normal;opacity:1;vector-effect:none;fill:#c080e0;fill-opacity:1;stroke:none;stroke-width:5.29201;stroke-linecap:round;stroke-linejoin:round;stroke-miterlimit:4;stroke-dasharray:none;stroke-dashoffset:0;stroke-opacity:1;-inkscape-stroke:none;stop-color:#000000;stop-opacity:1"
       d="m 8.4666665,16.691663 c -0.6422181,0 -1.6272782,-0.896159 -1.6639811,-2.978828 C 6.7653234,11.59277 7.5071089,9.6239688 8.4666665,6.9286917 9.4262241,9.6239688 10.16801,11.59277 10.130648,13.712835 c -0.0367,2.082669 -1.0217634,2.978828 -1.6639815,2.978828 z" />
    <path
       id="path2"
       style="font-variation-settings:normal;opacity:1;vector-effect:none;fill:#c080e0;fill-opacity:1;stroke:none;stroke-width:5.29201;stroke-linecap:round;stroke-linejoin:round;stroke-miterlimit:4;stroke-dasharray:none;stroke-dashoffset:0;stroke-opacity:1;-inkscape-stroke:none;stop-color:#000000;stop-opacity:1"
       d="m 8.4666665,0.24166941 c -0.6422181,0 -1.6272782,0.89615939 -1.6639811,2.97882829 C 6.7653236,5.3405624 7.5071089,7.3093642 8.4666665,10.004641 9.4262241,7.3093642 10.16801,5.3405624 10.130648,3.2204977 10.093945,1.1378288 9.1088846,0.24166941 8.4666665,0.24166941 Z" />
    <circle
       style="font-variation-settings:normal;opacity:1;vector-effect:none;fill:#ffe9a0;fill-opacity:1;fill-rule:evenodd;stroke:none;stroke-width:0.0529167;stroke-linecap:butt;stroke-linejoin:miter;stroke-miterlimit:4;stroke-dasharray:none;stroke-dashoffset:0;stroke-opacity:1;-inkscape-stroke:none;paint-order:markers fill stroke;stop-color:#000000;stop-opacity:1"
       id="path1"
       cx="8.4666662"
       cy="8.4666662"
       r="2.2207127" />
  </g>
</svg>
