o GrassArea
v 0.7 0.1 0.7
v 0.890211303259031 0.1 0.76180339887499
v 0.9 0.1 0.7
v 0.86180339887499 0.1 0.817557050458495
v 0.817557050458495 0.1 0.86180339887499
v 0.76180339887499 0.1 0.890211303259031
v 0.7 0.1 0.9
v -0.7 0.1 0.7
v -0.761803398874989 0.1 0.890211303259031
v -0.7 0.1 0.9
v -0.817557050458495 0.1 0.86180339887499
v -0.86180339887499 0.1 0.817557050458495
v -0.890211303259031 0.1 0.76180339887499
v -0.9 0.1 0.7
v -0.7 0.1 -0.7
v -0.890211303259031 0.1 -0.76180339887499
v -0.9 0.1 -0.7
v -0.86180339887499 0.1 -0.817557050458495
v -0.817557050458495 0.1 -0.86180339887499
v -0.76180339887499 0.1 -0.890211303259031
v -0.7 0.1 -0.9
v 0.7 0.1 -0.7
v 0.761803398874989 0.1 -0.890211303259031
v 0.7 0.1 -0.9
v 0.817557050458495 0.1 -0.86180339887499
v 0.861803398874989 0.1 -0.817557050458495
v 0.890211303259031 0.1 -0.76180339887499
v 0.9 0.1 -0.7
v -0.9 0.1 0
v 0 0.1 0
v 0 0.1 0.9
v 0.9 0.1 0
v 0 0.1 -0.9
v -0.925838507430564 0.0927183854566787 -0.773379379232032
v -0.937345180630704 0.0927183854566788 -0.70293912945731
v -0.957461154455426 0.0707106781186547 -0.783654200097431
v -0.970492700696511 0.0707106781186548 -0.705547895863492
v -0.977756517174757 0.0390731128489273 -0.790248563187132
v -0.991766724419221 0.0390731128489275 -0.707222197841497
v -0.985316954888546 -6.93889390390723E-17 -0.792705098312484
v -0.999691733373313 8.32667268468867E-17 -0.707845909572784
v -0.892109708902827 0.0927183854566788 -0.839575873560634
v -0.919009539156758 0.0707106781186548 -0.85911974423624
v -0.936273805859754 0.0390731128489274 -0.871662968210794
v -0.942705098312484 1.38777878078145E-17 -0.876335575687742
v -0.839575873560634 0.0927183854566787 -0.892109708902827
v -0.85911974423624 0.0707106781186547 -0.919009539156758
v -0.871662968210793 0.0390731128489273 -0.936273805859754
v -0.876335575687742 -6.93889390390723E-17 -0.942705098312484
v -0.773379379232032 0.0927183854566788 -0.925838507430564
v -0.783654200097431 0.0707106781186548 -0.957461154455426
v -0.790248563187132 0.0390731128489275 -0.977756517174757
v -0.792705098312484 1.38777878078145E-16 -0.985316954888546
v -0.70293912945731 0.0927183854566788 -0.937345180630704
v -0.705547895863492 0.0707106781186548 -0.970492700696511
v -0.707222197841497 0.0390731128489275 -0.991766724419221
v -0.707845909572784 1.2490009027033E-16 -0.999691733373313
v 0.70293912945731 0.0927183854566788 -0.937345180630704
v 0.705547895863492 0.0707106781186548 -0.970492700696511
v 0.707222197841497 0.0390731128489274 -0.991766724419221
v 0.707845909572784 1.38777878078145E-17 -0.999691733373313
v 0.773379379232032 0.0927183854566788 -0.925838507430564
v 0.78365420009743 0.0707106781186548 -0.957461154455426
v 0.790248563187132 0.0390731128489274 -0.977756517174757
v 0.792705098312484 2.77555756156289E-17 -0.985316954888546
v 0.839575873560634 0.0927183854566788 -0.892109708902827
v 0.85911974423624 0.0707106781186548 -0.919009539156758
v 0.871662968210794 0.0390731128489274 -0.936273805859754
v 0.876335575687742 2.77555756156289E-17 -0.942705098312484
v 0.892109708902827 0.0927183854566788 -0.839575873560634
v 0.919009539156758 0.0707106781186548 -0.85911974423624
v 0.936273805859754 0.0390731128489274 -0.871662968210794
v 0.942705098312484 1.38777878078145E-17 -0.876335575687742
v 0.925838507430564 0.0927183854566787 -0.773379379232032
v 0.957461154455426 0.0707106781186547 -0.783654200097431
v 0.977756517174757 0.0390731128489273 -0.790248563187132
v 0.985316954888546 -6.93889390390723E-17 -0.792705098312484
v 0.937345180630704 0.0927183854566788 -0.70293912945731
v 0.970492700696511 0.0707106781186548 -0.705547895863492
v 0.991766724419221 0.0390731128489275 -0.707222197841497
v 0.999691733373313 8.32667268468867E-17 -0.707845909572784
v 0.937345180630704 0.0927183854566788 0.70293912945731
v 0.970492700696511 0.0707106781186548 0.705547895863492
v 0.991766724419221 0.0390731128489275 0.707222197841497
v 0.999691733373313 8.32667268468867E-17 0.707845909572784
v 0.925838507430564 0.0927183854566787 0.773379379232032
v 0.957461154455426 0.0707106781186547 0.783654200097431
v 0.977756517174757 0.0390731128489273 0.790248563187132
v 0.985316954888546 -6.93889390390723E-17 0.792705098312484
v 0.892109708902827 0.0927183854566788 0.839575873560634
v 0.919009539156758 0.0707106781186548 0.85911974423624
v 0.936273805859754 0.0390731128489274 0.871662968210794
v 0.942705098312484 1.38777878078145E-17 0.876335575687742
v 0.839575873560634 0.0927183854566787 0.892109708902827
v 0.85911974423624 0.0707106781186547 0.919009539156758
v 0.871662968210793 0.0390731128489273 0.936273805859754
v 0.876335575687742 -6.93889390390723E-17 0.942705098312484
v 0.773379379232032 0.0927183854566788 0.925838507430564
v 0.783654200097431 0.0707106781186548 0.957461154455426
v 0.790248563187132 0.0390731128489275 0.977756517174757
v 0.792705098312484 1.38777878078145E-16 0.985316954888546
v 0.70293912945731 0.0927183854566788 0.937345180630704
v 0.705547895863492 0.0707106781186548 0.970492700696511
v 0.707222197841497 0.0390731128489275 0.991766724419221
v 0.707845909572784 1.2490009027033E-16 0.999691733373313
v -0.70293912945731 0.0927183854566788 0.937345180630704
v -0.705547895863492 0.0707106781186548 0.970492700696511
v -0.707222197841497 0.0390731128489274 0.991766724419221
v -0.707845909572784 1.38777878078145E-17 0.999691733373313
v -0.773379379232032 0.0927183854566788 0.925838507430564
v -0.78365420009743 0.0707106781186548 0.957461154455426
v -0.790248563187132 0.0390731128489274 0.977756517174757
v -0.792705098312484 2.77555756156289E-17 0.985316954888546
v -0.839575873560634 0.0927183854566787 0.892109708902827
v -0.85911974423624 0.0707106781186547 0.919009539156758
v -0.871662968210793 0.0390731128489273 0.936273805859754
v -0.876335575687742 -9.71445146547012E-17 0.942705098312484
v -0.892109708902827 0.0927183854566787 0.839575873560634
v -0.919009539156758 0.0707106781186547 0.85911974423624
v -0.936273805859754 0.0390731128489273 0.871662968210793
v -0.942705098312484 -6.93889390390723E-17 0.876335575687742
v -0.925838507430564 0.0927183854566788 0.773379379232032
v -0.957461154455426 0.0707106781186548 0.783654200097431
v -0.977756517174757 0.0390731128489275 0.790248563187132
v -0.985316954888546 8.32667268468867E-17 0.792705098312484
v -0.937345180630704 0.0927183854566788 0.70293912945731
v -0.970492700696511 0.0707106781186548 0.705547895863492
v -0.991766724419221 0.0390731128489275 0.707222197841497
v -0.999691733373313 8.32667268468867E-17 0.707845909572784
vt 0.84325278352 0.15203453098
vt 0.934008013408674 0.122546369253024
vt 0.9386784794 0.15203453098
vt 0.920453793186975 0.0959447142519893
vt 0.899342600248011 0.0748335213130245
vt 0.872740945246975 0.0612793010913263
vt 0.84325278352 0.0566088350999999
vt 0.07984721648 0.15203453098
vt 0.0503590547530246 0.0612793010913263
vt 0.07984721648 0.0566088350999999
vt 0.0237573997519894 0.0748335213130245
vt 0.00264620681302458 0.0959447142519893
vt -0.0109080134086736 0.122546369253024
vt -0.0155784794 0.15203453098
vt 0.07984721648 0.91544009802
vt -0.0109080134086736 0.944928259746975
vt -0.0155784794 0.91544009802
vt 0.00264620681302458 0.971529914748011
vt 0.0237573997519894 0.992641107686975
vt 0.0503590547530245 1.00619532790867
vt 0.07984721648 1.0108657939
vt 0.84325278352 0.91544009802
vt 0.872740945246975 1.00619532790867
vt 0.84325278352 1.0108657939
vt 0.899342600248011 0.992641107686975
vt 0.920453793186975 0.971529914748011
vt 0.934008013408674 0.944928259746975
vt 0.9386784794 0.91544009802
vt -0.0155784794 0.5337373145
vt 0.46155 0.5337373145
vt 0.46155 0.0566088350999999
vt 0.9386784794 0.5337373145
vt 0.46155 1.0108657939
vt -0.0279067671603107 0.950451489652295
vt -0.0333969286472462 0.916842440388726
vt -0.0429948326498861 0.95535389930791
vt -0.0492125544921256 0.918087157137218
vt -0.0526783282030316 0.958500257741511
vt -0.0593629970816618 0.918886014294039
vt -0.0562856283530104 0.959672340610463
vt -0.0631442445531589 0.919183604923973
vt -0.0118137968067827 0.982035722332912
vt -0.0246484719119587 0.991360659629954
vt -0.0328857452319153 0.997345389011706
vt -0.0359542980204632 0.999574823112016
vt 0.0132515921670879 1.00710111130678
vt 0.0039266548700459 1.01993578641196
vt -0.00205807451170636 1.02817305973192
vt -0.00428750861201582 1.03124161252046
vt 0.0448358248477047 1.02319408166031
vt 0.0399334151920896 1.03828214714989
vt 0.0367870567584889 1.04796564270303
vt 0.0356149738895369 1.05157294285301
vt 0.0784448741112738 1.02868424314725
vt 0.0772001573627823 1.04449986899213
vt 0.0764013002059605 1.05465031158166
vt 0.0761037095760275 1.05843155905316
vt 0.844655125888726 1.02868424314725
vt 0.845899842637218 1.04449986899213
vt 0.84669869979404 1.05465031158166
vt 0.846996290423973 1.05843155905316
vt 0.878264175152295 1.02319408166031
vt 0.88316658480791 1.03828214714989
vt 0.886312943241511 1.04796564270303
vt 0.887485026110463 1.05157294285301
vt 0.909848407832912 1.00710111130678
vt 0.919173345129954 1.01993578641196
vt 0.925158074511707 1.02817305973192
vt 0.927387508612016 1.03124161252046
vt 0.934913796806783 0.982035722332912
vt 0.947748471911959 0.991360659629954
vt 0.955985745231915 0.997345389011706
vt 0.959054298020463 0.999574823112016
vt 0.951006767160311 0.950451489652295
vt 0.966094832649886 0.95535389930791
vt 0.975778328203032 0.958500257741511
vt 0.979385628353011 0.959672340610463
vt 0.956496928647246 0.916842440388726
vt 0.972312554492126 0.918087157137218
vt 0.982462997081662 0.918886014294039
vt 0.986244244553159 0.919183604923973
vt 0.956496928647246 0.150632188611274
vt 0.972312554492126 0.149387471862782
vt 0.982462997081662 0.14858861470596
vt 0.986244244553159 0.148291024076027
vt 0.951006767160311 0.117023139347705
vt 0.966094832649886 0.11212072969209
vt 0.975778328203032 0.108974371258489
vt 0.97938562835301 0.107802288389537
vt 0.934913796806783 0.0854389066670879
vt 0.947748471911959 0.0761139693700458
vt 0.955985745231915 0.0701292399882935
vt 0.959054298020463 0.067899805887984
vt 0.909848407832912 0.0603735176932172
vt 0.919173345129954 0.0475388425880413
vt 0.925158074511706 0.0393015692680846
vt 0.927387508612016 0.0362330164795369
vt 0.878264175152295 0.0442805473396893
vt 0.88316658480791 0.0291924818501138
vt 0.886312943241511 0.0195089862969684
vt 0.887485026110463 0.0159016861469896
vt 0.844655125888726 0.0387903858527537
vt 0.845899842637218 0.0229747600078744
vt 0.84669869979404 0.0128243174183381
vt 0.846996290423973 0.00904306994684101
vt 0.0784448741112738 0.0387903858527537
vt 0.0772001573627823 0.0229747600078744
vt 0.0764013002059605 0.0128243174183381
vt 0.0761037095760275 0.00904306994684101
vt 0.0448358248477047 0.0442805473396893
vt 0.0399334151920897 0.0291924818501138
vt 0.036787056758489 0.0195089862969683
vt 0.035614973889537 0.0159016861469895
vt 0.0132515921670879 0.0603735176932172
vt 0.0039266548700459 0.0475388425880413
vt -0.00205807451170642 0.0393015692680846
vt -0.00428750861201588 0.0362330164795369
vt -0.0118137968067827 0.0854389066670879
vt -0.0246484719119587 0.0761139693700458
vt -0.0328857452319153 0.0701292399882936
vt -0.0359542980204631 0.0678998058879841
vt -0.0279067671603107 0.117023139347705
vt -0.0429948326498861 0.11212072969209
vt -0.0526783282030315 0.108974371258489
vt -0.0562856283530104 0.107802288389537
vt -0.0333969286472462 0.150632188611274
vt -0.0492125544921256 0.149387471862782
vt -0.0593629970816618 0.14858861470596
vt -0.0631442445531589 0.148291024076027
vn 0 1 0
vn 0 0.1 0
vn -0.0369994564626959 0.0927183854566787 -0.0058601382041561
vn -0.069840112333371 0.0707106781186548 -0.0110615871041236
vn -0.0909171911216211 0.0390731128489274 -0.0143998684316768
vn -0.0987688340595136 0 -0.0156434465040228
vn -0.0333776918737557 0.0927183854566787 -0.0170067834550619
vn -0.0630036755335052 0.0707106781186547 -0.0321019760960104
vn -0.0820175829973183 0.0390731128489273 -0.0417900458431553
vn -0.089100652418837 -4.16333634234434E-17 -0.0453990499739548
vn -0.0264886862481584 0.0927183854566788 -0.0264886862481584
vn -0.0500000000000002 0.0707106781186548 -0.0499999999999999
vn -0.0650895223991351 0.0390731128489274 -0.0650895223991351
vn -0.0707106781186549 -1.38777878078145E-17 -0.0707106781186549
vn -0.0170067834550619 0.0927183854566788 -0.0333776918737556
vn -0.0321019760960103 0.0707106781186548 -0.0630036755335051
vn -0.0417900458431554 0.0390731128489274 -0.0820175829973182
vn -0.0453990499739547 1.38777878078145E-17 -0.0891006524188369
vn -0.0058601382041561 0.0927183854566788 -0.0369994564626959
vn -0.0110615871041236 0.0707106781186548 -0.069840112333371
vn -0.0143998684316768 0.0390731128489274 -0.0909171911216211
vn -0.0156434465040229 2.77555756156289E-17 -0.0987688340595139
vn 0 0.0927183854566788 -0.0374606593415912
vn 0 0.0707106781186548 -0.0707106781186548
vn 0 0.0390731128489274 -0.092050485345244
vn -1.11022302462516E-16 1.38777878078145E-17 -0.1
vn 0.0058601382041561 0.0927183854566787 -0.0369994564626959
vn 0.0110615871041237 0.0707106781186547 -0.069840112333371
vn 0.0143998684316767 0.0390731128489273 -0.0909171911216209
vn 0.0156434465040228 -6.93889390390723E-17 -0.0987688340595136
vn 0.0170067834550619 0.0927183854566788 -0.0333776918737557
vn 0.0321019760960104 0.0707106781186548 -0.0630036755335052
vn 0.0417900458431553 0.0390731128489274 -0.0820175829973185
vn 0.0453990499739549 -1.38777878078145E-17 -0.0891006524188372
vn 0.0264886862481584 0.0927183854566788 -0.0264886862481583
vn 0.05 0.0707106781186548 -0.0499999999999999
vn 0.065089522399135 0.0390731128489275 -0.0650895223991348
vn 0.0707106781186548 1.38777878078145E-16 -0.0707106781186544
vn 0.0333776918737556 0.0927183854566787 -0.0170067834550619
vn 0.0630036755335051 0.0707106781186547 -0.0321019760960104
vn 0.0820175829973182 0.0390731128489273 -0.0417900458431553
vn 0.0891006524188367 -4.16333634234434E-17 -0.0453990499739547
vn 0.0369994564626959 0.0927183854566788 -0.0058601382041561
vn 0.069840112333371 0.0707106781186548 -0.0110615871041236
vn 0.0909171911216211 0.0390731128489274 -0.0143998684316768
vn 0.0987688340595139 2.77555756156289E-17 -0.0156434465040229
vn 0.0374606593415912 0.0927183854566788 0
vn 0.0707106781186548 0.0707106781186548 0
vn 0.092050485345244 0.0390731128489274 0
vn 0.1 1.38777878078145E-17 -1.11022302462516E-16
vn 0.0369994564626959 0.0927183854566787 0.0058601382041561
vn 0.069840112333371 0.0707106781186548 0.0110615871041236
vn 0.0909171911216211 0.0390731128489274 0.0143998684316768
vn 0.0987688340595136 0 0.0156434465040228
vn 0.0333776918737557 0.0927183854566787 0.0170067834550619
vn 0.0630036755335052 0.0707106781186547 0.0321019760960104
vn 0.0820175829973183 0.0390731128489273 0.0417900458431553
vn 0.089100652418837 -4.16333634234434E-17 0.0453990499739548
vn 0.0264886862481584 0.0927183854566788 0.0264886862481584
vn 0.0500000000000002 0.0707106781186548 0.0499999999999999
vn 0.0650895223991351 0.0390731128489274 0.0650895223991351
vn 0.0707106781186549 -1.38777878078145E-17 0.0707106781186549
vn 0.0170067834550619 0.0927183854566788 0.0333776918737556
vn 0.0321019760960103 0.0707106781186548 0.0630036755335051
vn 0.0417900458431554 0.0390731128489274 0.0820175829973182
vn 0.0453990499739547 1.38777878078145E-17 0.0891006524188369
vn 0.0058601382041561 0.0927183854566788 0.0369994564626959
vn 0.0110615871041236 0.0707106781186548 0.069840112333371
vn 0.0143998684316768 0.0390731128489274 0.0909171911216211
vn 0.0156434465040229 2.77555756156289E-17 0.0987688340595139
vn 0 0.0927183854566788 0.0374606593415912
vn 0 0.0707106781186548 0.0707106781186548
vn 0 0.0390731128489274 0.092050485345244
vn 1.11022302462516E-16 1.38777878078145E-17 0.1
vn -0.0058601382041561 0.0927183854566787 0.0369994564626959
vn -0.0110615871041237 0.0707106781186547 0.069840112333371
vn -0.0143998684316767 0.0390731128489273 0.0909171911216209
vn -0.0156434465040228 -6.93889390390723E-17 0.0987688340595136
vn -0.0170067834550619 0.0927183854566788 0.0333776918737557
vn -0.0321019760960104 0.0707106781186548 0.0630036755335052
vn -0.0417900458431553 0.0390731128489274 0.0820175829973185
vn -0.0453990499739549 -1.38777878078145E-17 0.0891006524188372
vn -0.0264886862481584 0.0927183854566788 0.0264886862481584
vn -0.0499999999999999 0.0707106781186548 0.0500000000000002
vn -0.0650895223991351 0.0390731128489274 0.0650895223991351
vn -0.0707106781186549 -1.38777878078145E-17 0.0707106781186549
vn -0.0333776918737556 0.0927183854566787 0.0170067834550619
vn -0.0630036755335051 0.0707106781186547 0.0321019760960103
vn -0.0820175829973182 0.0390731128489273 0.0417900458431552
vn -0.0891006524188369 -4.16333634234434E-17 0.0453990499739546
vn -0.0369994564626959 0.0927183854566788 0.0058601382041561
vn -0.069840112333371 0.0707106781186548 0.0110615871041236
vn -0.0909171911216211 0.0390731128489274 0.0143998684316768
vn -0.0987688340595139 2.77555756156289E-17 0.0156434465040229
vn -0.0374606593415912 0.0927183854566788 0
vn -0.0707106781186548 0.0707106781186548 0
vn -0.092050485345244 0.0390731128489274 0
vn -0.1 1.38777878078145E-17 1.11022302462516E-16
g GrassArea
f 1/1/1 2/2/1 3/3/1
f 1/1/1 4/4/1 2/2/1
f 1/1/1 5/5/1 4/4/1
f 1/1/1 6/6/1 5/5/1
f 1/1/1 7/7/1 6/6/1
f 8/8/1 9/9/1 10/10/1
f 8/8/1 11/11/1 9/9/1
f 8/8/1 12/12/1 11/11/1
f 8/8/1 13/13/1 12/12/1
f 8/8/1 14/14/1 13/13/1
f 15/15/1 16/16/1 17/17/1
f 15/15/1 18/18/1 16/16/1
f 15/15/1 19/19/1 18/18/1
f 15/15/1 20/20/1 19/19/1
f 15/15/1 21/21/1 20/20/1
f 22/22/1 23/23/1 24/24/1
f 22/22/1 25/25/1 23/23/1
f 22/22/1 26/26/1 25/25/1
f 22/22/1 27/27/1 26/26/1
f 22/22/1 28/28/1 27/27/1
f 29/29/1 30/30/1 15/15/1
f 15/15/1 17/17/1 29/29/1
f 8/8/1 30/30/1 29/29/1
f 29/29/1 14/14/1 8/8/1
f 8/8/1 10/10/1 31/31/1
f 31/31/1 30/30/1 8/8/1
f 1/1/1 30/30/1 31/31/1
f 31/31/1 7/7/1 1/1/1
f 1/1/1 3/3/1 32/32/1
f 32/32/1 30/30/1 1/1/1
f 22/22/1 30/30/1 32/32/1
f 32/32/1 28/28/1 22/22/1
f 22/22/1 24/24/1 33/33/1
f 33/33/1 30/30/1 22/22/1
f 15/15/1 30/30/1 33/33/1
f 33/33/1 21/21/1 15/15/1
f 17/17/2 16/16/2 34/34/3 35/35/3
f 35/35/3 34/34/3 36/36/4 37/37/4
f 37/37/4 36/36/4 38/38/5 39/39/5
f 39/39/5 38/38/5 40/40/6 41/41/6
f 41/41/6 40/40/6 40/40/6 41/41/6
f 16/16/2 18/18/2 42/42/7 34/34/7
f 34/34/7 42/42/7 43/43/8 36/36/8
f 36/36/8 43/43/8 44/44/9 38/38/9
f 38/38/9 44/44/9 45/45/10 40/40/10
f 40/40/10 45/45/10 45/45/10 40/40/10
f 18/18/2 19/19/2 46/46/11 42/42/11
f 42/42/11 46/46/11 47/47/12 43/43/12
f 43/43/12 47/47/12 48/48/13 44/44/13
f 44/44/13 48/48/13 49/49/14 45/45/14
f 45/45/14 49/49/14 49/49/14 45/45/14
f 19/19/2 20/20/2 50/50/15 46/46/15
f 46/46/15 50/50/15 51/51/16 47/47/16
f 47/47/16 51/51/16 52/52/17 48/48/17
f 48/48/17 52/52/17 53/53/18 49/49/18
f 49/49/18 53/53/18 53/53/18 49/49/18
f 20/20/2 21/21/2 54/54/19 50/50/19
f 50/50/19 54/54/19 55/55/20 51/51/20
f 51/51/20 55/55/20 56/56/21 52/52/21
f 52/52/21 56/56/21 57/57/22 53/53/22
f 53/53/22 57/57/22 57/57/22 53/53/22
f 21/21/2 24/24/2 58/58/23 54/54/23
f 54/54/23 58/58/23 59/59/24 55/55/24
f 55/55/24 59/59/24 60/60/25 56/56/25
f 56/56/25 60/60/25 61/61/26 57/57/26
f 57/57/26 61/61/26 61/61/26 57/57/26
f 24/24/2 23/23/2 62/62/27 58/58/27
f 58/58/27 62/62/27 63/63/28 59/59/28
f 59/59/28 63/63/28 64/64/29 60/60/29
f 60/60/29 64/64/29 65/65/30 61/61/30
f 61/61/30 65/65/30 65/65/30 61/61/30
f 23/23/2 25/25/2 66/66/31 62/62/31
f 62/62/31 66/66/31 67/67/32 63/63/32
f 63/63/32 67/67/32 68/68/33 64/64/33
f 64/64/33 68/68/33 69/69/34 65/65/34
f 65/65/34 69/69/34 69/69/34 65/65/34
f 25/25/2 26/26/2 70/70/35 66/66/35
f 66/66/35 70/70/35 71/71/36 67/67/36
f 67/67/36 71/71/36 72/72/37 68/68/37
f 68/68/37 72/72/37 73/73/38 69/69/38
f 69/69/38 73/73/38 73/73/38 69/69/38
f 26/26/2 27/27/2 74/74/39 70/70/39
f 70/70/39 74/74/39 75/75/40 71/71/40
f 71/71/40 75/75/40 76/76/41 72/72/41
f 72/72/41 76/76/41 77/77/42 73/73/42
f 73/73/42 77/77/42 77/77/42 73/73/42
f 27/27/2 28/28/2 78/78/43 74/74/43
f 74/74/43 78/78/43 79/79/44 75/75/44
f 75/75/44 79/79/44 80/80/45 76/76/45
f 76/76/45 80/80/45 81/81/46 77/77/46
f 77/77/46 81/81/46 81/81/46 77/77/46
f 28/28/2 3/3/2 82/82/47 78/78/47
f 78/78/47 82/82/47 83/83/48 79/79/48
f 79/79/48 83/83/48 84/84/49 80/80/49
f 80/80/49 84/84/49 85/85/50 81/81/50
f 81/81/50 85/85/50 85/85/50 81/81/50
f 3/3/2 2/2/2 86/86/51 82/82/51
f 82/82/51 86/86/51 87/87/52 83/83/52
f 83/83/52 87/87/52 88/88/53 84/84/53
f 84/84/53 88/88/53 89/89/54 85/85/54
f 85/85/54 89/89/54 89/89/54 85/85/54
f 2/2/2 4/4/2 90/90/55 86/86/55
f 86/86/55 90/90/55 91/91/56 87/87/56
f 87/87/56 91/91/56 92/92/57 88/88/57
f 88/88/57 92/92/57 93/93/58 89/89/58
f 89/89/58 93/93/58 93/93/58 89/89/58
f 4/4/2 5/5/2 94/94/59 90/90/59
f 90/90/59 94/94/59 95/95/60 91/91/60
f 91/91/60 95/95/60 96/96/61 92/92/61
f 92/92/61 96/96/61 97/97/62 93/93/62
f 93/93/62 97/97/62 97/97/62 93/93/62
f 5/5/2 6/6/2 98/98/63 94/94/63
f 94/94/63 98/98/63 99/99/64 95/95/64
f 95/95/64 99/99/64 100/100/65 96/96/65
f 96/96/65 100/100/65 101/101/66 97/97/66
f 97/97/66 101/101/66 101/101/66 97/97/66
f 6/6/2 7/7/2 102/102/67 98/98/67
f 98/98/67 102/102/67 103/103/68 99/99/68
f 99/99/68 103/103/68 104/104/69 100/100/69
f 100/100/69 104/104/69 105/105/70 101/101/70
f 101/101/70 105/105/70 105/105/70 101/101/70
f 7/7/2 10/10/2 106/106/71 102/102/71
f 102/102/71 106/106/71 107/107/72 103/103/72
f 103/103/72 107/107/72 108/108/73 104/104/73
f 104/104/73 108/108/73 109/109/74 105/105/74
f 105/105/74 109/109/74 109/109/74 105/105/74
f 10/10/2 9/9/2 110/110/75 106/106/75
f 106/106/75 110/110/75 111/111/76 107/107/76
f 107/107/76 111/111/76 112/112/77 108/108/77
f 108/108/77 112/112/77 113/113/78 109/109/78
f 109/109/78 113/113/78 113/113/78 109/109/78
f 9/9/2 11/11/2 114/114/79 110/110/79
f 110/110/79 114/114/79 115/115/80 111/111/80
f 111/111/80 115/115/80 116/116/81 112/112/81
f 112/112/81 116/116/81 117/117/82 113/113/82
f 113/113/82 117/117/82 117/117/82 113/113/82
f 11/11/2 12/12/2 118/118/83 114/114/83
f 114/114/83 118/118/83 119/119/84 115/115/84
f 115/115/84 119/119/84 120/120/85 116/116/85
f 116/116/85 120/120/85 121/121/86 117/117/86
f 117/117/86 121/121/86 121/121/86 117/117/86
f 12/12/2 13/13/2 122/122/87 118/118/87
f 118/118/87 122/122/87 123/123/88 119/119/88
f 119/119/88 123/123/88 124/124/89 120/120/89
f 120/120/89 124/124/89 125/125/90 121/121/90
f 121/121/90 125/125/90 125/125/90 121/121/90
f 13/13/2 14/14/2 126/126/91 122/122/91
f 122/122/91 126/126/91 127/127/92 123/123/92
f 123/123/92 127/127/92 128/128/93 124/124/93
f 124/124/93 128/128/93 129/129/94 125/125/94
f 125/125/94 129/129/94 129/129/94 125/125/94
f 14/14/2 17/17/2 35/35/95 126/126/95
f 126/126/95 35/35/95 37/37/96 127/127/96
f 127/127/96 37/37/96 39/39/97 128/128/97
f 128/128/97 39/39/97 41/41/98 129/129/98
f 129/129/98 41/41/98 41/41/98 129/129/98
#h 
